<svg width="34" height="28" viewBox="0 0 34 28" fill="none" xmlns="http://www.w3.org/2000/svg">
<path fill-rule="evenodd" clip-rule="evenodd" d="M14.7073 0.528129C10.1118 0.9697 5.87765 3.00191 3.18332 6.05898C-1.22018 11.0553 -0.744069 17.8977 4.32523 22.4684C7.66732 25.4818 12.1656 27.0459 17.1565 26.9299C19.5764 26.8736 21.5992 26.4874 23.7542 25.6703L24.5511 25.3681L27.485 26.3349C30.6632 27.3823 30.7394 27.3988 31.0828 27.1153C31.4467 26.8148 31.4503 26.8361 30.5885 24.1811L29.7994 21.7505L30.1597 21.3299C31.8374 19.371 32.8386 17.1639 33.1058 14.8361C33.2395 13.6705 33.1643 12.4759 32.8775 11.2121C32.4557 9.35371 31.3721 7.36086 29.9312 5.79373C29.3541 5.16615 27.9159 3.95036 27.1655 3.45577C24.6336 1.78708 21.5721 0.764151 18.3167 0.499016C17.3747 0.422325 15.665 0.436088 14.7073 0.528129ZM18.7645 1.94828C24.4359 2.55921 29.291 5.87546 30.9455 10.2683C31.3665 11.386 31.5047 12.1068 31.543 13.3836C31.5805 14.634 31.5003 15.3329 31.1984 16.3855C30.7658 17.8939 29.8742 19.4401 28.7161 20.6902C28.2139 21.2324 28.1458 21.3371 28.1458 21.5665C28.1458 21.6962 29.1403 24.8987 29.3368 25.4018C29.3524 25.4417 29.1888 25.4111 28.9316 25.3259C26.6807 24.5796 24.731 23.9469 24.5907 23.9172C24.4611 23.8896 24.1948 23.9699 23.495 24.2475C21.1961 25.1597 19.1529 25.5487 16.6731 25.5463C13.3272 25.5431 10.3752 24.7584 7.71411 23.165C4.71331 21.368 2.72931 18.8145 1.99596 15.8053C1.83135 15.1298 1.81988 14.9926 1.81988 13.6951C1.81988 12.3976 1.83135 12.2604 1.99596 11.5849C2.75258 8.48019 4.8183 5.88628 7.98624 4.06313C11.0955 2.27368 14.8843 1.53027 18.7645 1.94828ZM16.6731 4.54707C15.6885 4.74157 14.5933 5.41197 14.1135 6.11386C13.0902 7.61065 14.1549 9.42524 16.2698 9.78893C16.8896 9.89547 17.953 9.83311 18.5316 9.65622C20.2156 9.14136 21.2673 7.84593 21.0054 6.6089C20.8123 5.69614 20.1027 5.02251 18.9367 4.64494C18.3918 4.46851 17.308 4.42161 16.6731 4.54707ZM18.359 5.94128C18.6997 6.01678 19.1893 6.32864 19.3264 6.55747C19.6664 7.12512 19.2164 7.87708 18.3244 8.23199C16.9428 8.78169 15.3196 8.30183 15.3196 7.3437C15.3196 6.83592 15.7216 6.39548 16.4634 6.09041C17.083 5.83558 17.6727 5.7892 18.359 5.94128ZM15.5822 10.6414C13.9176 10.9284 12.3636 12.0535 12.5186 12.8596C12.5529 13.0382 12.6452 13.1605 12.9357 13.4127C13.2594 13.6936 13.319 13.7794 13.3855 14.0613C13.4947 14.5233 13.4374 14.9141 12.9207 17.2351C12.3102 19.9775 12.3005 20.5534 12.8476 21.5453C13.2367 22.2507 14.0296 22.8398 14.9439 23.1031C15.3489 23.2197 15.5403 23.2389 16.2864 23.2382C17.0956 23.2374 17.196 23.2249 17.7212 23.0606C18.4508 22.8324 18.9127 22.588 19.4526 22.1449C19.9443 21.7411 20.1536 21.4184 20.1536 21.0634C20.1536 20.7657 20.0056 20.5351 19.6924 20.3443C19.3929 20.1619 19.2569 19.9128 19.2095 19.4596C19.1555 18.9449 19.2695 18.256 19.6975 16.5095C20.1809 14.5369 20.243 14.172 20.1906 13.6135C20.078 12.4109 19.3829 11.4638 18.2522 10.972C17.4429 10.62 16.4322 10.4949 15.5822 10.6414ZM17.2115 12.0879C17.8724 12.2655 18.3041 12.6504 18.5032 13.2397C18.6847 13.7766 18.6384 14.1933 18.1928 16.0346C17.668 18.2035 17.618 18.5162 17.6542 19.4027C17.6873 20.2109 17.8041 20.5692 18.1621 20.9607C18.2743 21.0835 18.3402 21.2003 18.3084 21.2203C17.5613 21.6905 16.9946 21.8696 16.2542 21.8694C15.2542 21.8691 14.6531 21.5766 14.2785 20.9078C14.1025 20.5936 14.0657 20.4574 14.0457 20.046C14.025 19.623 14.0779 19.3065 14.4393 17.6883C14.9742 15.2934 15.0201 15.0043 14.9823 14.2716C14.9491 13.6284 14.8271 13.2512 14.5205 12.844C14.3704 12.6447 14.367 12.6252 14.4691 12.544C14.5292 12.4962 14.7524 12.3827 14.9651 12.2918C15.7617 11.951 16.4647 11.8872 17.2115 12.0879Z" fill="white"/>
</svg>
