<svg width="30" height="24" viewBox="0 0 30 24" fill="none" xmlns="http://www.w3.org/2000/svg">
<path fill-rule="evenodd" clip-rule="evenodd" d="M1.99351 0.0618607C1.05323 0.257858 0.244424 1.14385 0.0604452 2.17956C-0.0203531 2.63434 -0.0200602 16.0523 0.0607967 16.5106C0.251631 17.5925 1.12858 18.4704 2.18065 18.6328C2.38643 18.6646 5.64268 18.6904 9.52937 18.6911L16.5086 18.6924L16.6404 19.0832C17.9035 22.8296 21.6738 24.8466 25.1962 23.6606C25.7684 23.468 26.5246 23.0786 26.6771 22.898C27.0399 22.4688 26.7841 21.8192 26.2522 21.8194C26.1385 21.8194 25.8741 21.9069 25.6647 22.0138C24.6197 22.5472 23.6482 22.7379 22.5593 22.6234C20.1897 22.3742 18.2598 20.5787 17.6614 18.067C17.5729 17.6953 17.5508 17.3902 17.5551 16.5973C17.5599 15.6984 17.5766 15.5398 17.7191 15.0377C18.2918 13.0203 19.7056 11.5103 21.5925 10.9006C22.067 10.7472 22.2138 10.7295 23.0573 10.7244C23.8002 10.7198 24.086 10.7434 24.4342 10.8379C26.3947 11.37 27.8895 12.8685 28.4873 14.9011C28.708 15.6517 28.8249 17.0366 28.7144 17.5917C28.6153 18.0892 28.2308 18.5194 27.7965 18.6188C27.1764 18.7608 26.6318 18.4682 26.362 17.8481C26.2655 17.6263 26.253 17.4259 26.2519 16.0782C26.2505 14.4067 26.2275 14.277 25.901 14.0968C25.6856 13.978 25.5629 13.9778 25.3507 14.096C25.1918 14.1844 25.172 14.1799 24.9698 14.0101C24.0786 13.2617 22.7427 13.146 21.6733 13.7244C21.3303 13.9099 20.7494 14.4777 20.5131 14.8586C19.4066 16.6416 20.2148 19.1131 22.1373 19.8256C23.1382 20.1965 24.3592 19.934 25.1634 19.175L25.4531 18.9016L25.7514 19.2191C27.1536 20.7117 29.571 19.9042 29.9414 17.8193C29.9739 17.6366 30.0003 17.1884 30 16.8233C29.9984 14.3969 29.0035 12.2366 27.228 10.8036C26.3831 10.1218 25.064 9.5429 24.0387 9.404L23.7311 9.36229V5.78199C23.7311 2.42953 23.724 2.17968 23.62 1.85686C23.3269 0.947664 22.6671 0.295131 21.8269 0.0835618C21.5307 0.00895275 19.9624 -0.00405531 11.8663 0.000947807C6.58126 0.00419984 2.13853 0.0316544 1.99351 0.0618607ZM21.2605 1.3623C21.2275 1.45654 12.4238 9.15016 12.257 9.23052C12.0486 9.33096 11.6668 9.33014 11.4851 9.22895C11.3333 9.1444 2.92044 1.80457 2.60984 1.48581L2.43518 1.30651H11.8576C17.3542 1.30651 21.2719 1.32978 21.2605 1.3623ZM6.0612 6.24709C8.59618 8.46567 10.7827 10.342 10.92 10.4166C11.4651 10.7129 12.2074 10.7263 12.7879 10.4503C12.9255 10.3849 15.1301 8.49775 17.687 6.25673C20.2438 4.01564 22.3566 2.18206 22.3821 2.18206C22.4857 2.18206 22.4991 2.6067 22.4999 5.9102L22.5007 9.35691L22.0466 9.43452C19.6539 9.84371 17.5736 11.649 16.7009 14.0738C16.3997 14.9104 16.1943 16.3076 16.271 16.9982L16.3064 17.318L9.18433 17.3016L2.06218 17.2852L1.80813 17.0949C1.66838 16.9901 1.48816 16.779 1.40759 16.6258L1.26111 16.3471V9.37404C1.26111 5.53884 1.28092 2.34935 1.30511 2.28631C1.32925 2.22327 1.37226 2.18106 1.40062 2.1925C1.42898 2.20395 3.52628 4.02852 6.0612 6.24709ZM23.9183 14.8667C24.2422 15.0358 24.6344 15.4363 24.7852 15.7518C25.0376 16.2799 25.0396 17.0356 24.79 17.5578C24.3228 18.5352 23.175 18.9369 22.2652 18.4416C21.9703 18.281 21.5948 17.8625 21.4351 17.5163C21.2393 17.092 21.2411 16.2213 21.4386 15.8156C21.6842 15.3111 22.116 14.9193 22.6179 14.7453C22.9042 14.646 23.6245 14.7133 23.9183 14.8667Z" fill="#FDFDFD"/>
</svg>
