<svg width="99" height="99" viewBox="0 0 99 99" fill="none" xmlns="http://www.w3.org/2000/svg">
<path fill-rule="evenodd" clip-rule="evenodd" d="M41.07 1.70084L39.2963 3.4014L37.3871 3.24685C34.9484 3.04943 33.0579 3.49148 29.7992 5.02108C21.86 8.74769 16.2233 15.8124 14.5328 24.1554C13.8755 27.3991 14.0801 33.1667 14.9619 36.2616C16.2204 40.6772 20.1303 47.0213 22.8336 49.0332C23.5761 49.586 23.6981 49.5984 24.4164 49.1967C25.4904 48.5958 25.5002 47.9563 24.4722 45.4657C23.0931 42.1245 22.418 39.2613 22.2508 36.0469C21.9754 30.7481 23.0111 27.735 26.6594 23.2233L28.7989 20.577L27.7162 19.6167L26.6335 18.656L25.3874 20.0484C22.3498 23.4417 20.364 26.9096 19.5648 30.218C19.1375 31.9874 19.0413 36.6556 19.3959 38.4201C19.7136 40.0003 19.2362 39.4242 18.4416 37.2689C15.3697 28.9351 17.272 19.7928 23.4264 13.3141C26.8258 9.7351 30.4255 7.51278 34.5817 6.42723C37.173 5.75035 38.2847 6.09426 40.2607 8.18362C41.481 9.47378 41.7426 9.93367 41.7426 10.7881C41.7426 12.4527 40.8636 13.0902 37.9903 13.5103C35.665 13.8505 31.6797 14.9654 30.8324 15.5131C30.4951 15.7312 30.4882 15.9235 30.7915 16.6556C31.4123 18.1541 31.68 18.2195 34.0122 17.4413C35.1775 17.0527 37.1359 16.5966 38.3645 16.428C39.593 16.259 41.0176 15.941 41.5302 15.7209C43.8532 14.7231 45.194 12.1954 44.6605 9.81999C44.4095 8.70337 44.4299 8.66336 46.096 7.01461C48.3689 4.76524 48.3465 4.37672 45.7995 1.91784C44.7071 0.863084 43.5951 0 43.3286 0C43.0621 0 42.0456 0.765235 41.07 1.70084ZM66.7202 0.271099C65.4626 0.671703 64.2982 1.63954 63.4382 2.99878C62.8877 3.86935 62.3792 4.31945 61.8203 4.43111C60.4334 4.70854 57.2323 6.06922 55.2014 7.24427C49.3687 10.6198 44.6806 16.0953 42.4304 22.1599C41.6021 24.392 41.4035 24.6815 40.1629 25.4695C32.6112 30.2641 28.2144 36.7517 26.6781 45.3659C26.5311 46.1913 26.5927 46.2831 27.4028 46.4451C29.4418 46.8529 29.5071 46.8037 29.8899 44.5716C31.193 36.9716 37.3998 29.5129 44.9129 26.5179C52.392 23.5367 61.007 24.3828 67.6627 28.752C70.3452 30.513 73.8047 34.0937 75.3628 36.7212C81.3325 46.7893 79.6181 59.3111 71.164 67.3879C61.5391 76.5834 46.8238 76.584 37.0766 67.3894C32.7183 63.2777 29.9679 57.6004 29.4677 51.6826L29.2832 49.5H27.8437H26.4045L26.578 52.0182C27.4158 64.1647 37.0616 74.6656 49.3797 76.8407C52.0814 77.3176 58.5409 77.0732 61.0245 76.3998C63.6109 75.6984 66.8914 74.2796 68.8988 72.9941L70.5858 71.9137L71.6328 72.6384C73.1667 73.6997 74.8963 74.2261 78.0163 74.581L80.79 74.8964L80.8061 76.5998C80.8271 78.8431 81.9884 81.2309 83.6731 82.4955C86.254 84.4326 92.2585 85.5645 95.4898 84.723C98.3746 83.9716 98.8506 83.1206 98.8523 78.7108C98.8555 71.453 95.9384 67.2115 90.6854 66.8356L88.7322 66.6958L88.5431 64.5014C88.4389 63.2941 88.2723 61.9294 88.1727 61.4681C88.0124 60.7256 88.0544 60.6562 88.5379 60.8628C89.8868 61.439 92.967 61.915 94.5651 61.7944C97.9734 61.5368 98.8673 60.4444 98.8552 56.5509C98.8446 53.1808 97.9242 50.4109 96.2634 48.75L94.9835 47.4699L95.8104 45.8229C98.1723 41.1184 99.3093 35.1536 98.7827 30.2281C98.0888 23.7384 96.135 19.0123 92.0435 13.9262C88.9172 10.0402 83.4003 6.30089 78.4923 4.74106C76.727 4.18016 76.4383 3.97698 75.5634 2.67789C74.2528 0.731564 73.0479 0.176703 69.946 0.0906541C68.6006 0.0532413 67.149 0.134398 66.7202 0.271099ZM71.4581 3.18124C72.301 3.41521 72.7756 3.83366 73.6165 5.0844C74.6698 6.65055 74.7573 6.70811 77.4286 7.5948C85.9628 10.4272 92.5442 17.2838 95 25.9012C95.8584 28.9138 96.0846 34.7415 95.4604 37.7604C94.0016 44.8145 89.6488 51.0734 83.5652 54.8653C82.3939 55.5954 81.369 56.1267 81.2882 56.0458C81.2076 55.9649 81.2936 55.0244 81.4795 53.9559C82.0298 50.7971 81.6801 44.9915 80.752 41.8735C77.9751 32.5457 71.1666 25.744 61.683 22.8238C59.3395 22.1023 58.7847 22.0456 54.1176 22.0499C49.8755 22.0543 48.775 22.1478 47.1386 22.6442C46.0701 22.9686 45.196 23.1971 45.196 23.1525C45.196 22.73 46.6036 19.9937 47.6641 18.3541C51.0405 13.1351 56.6438 8.99461 62.5993 7.31794C64.4349 6.80107 64.634 6.66351 65.502 5.31175C66.0148 4.51342 66.6091 3.71624 66.8232 3.5404C67.5885 2.91158 69.8542 2.73574 71.4581 3.18124ZM43.7113 5.37276C43.006 6.1239 42.5959 6.20621 42.0885 5.69883C41.8208 5.43119 41.9158 5.17476 42.5144 4.54997C43.2391 3.79366 43.3165 3.77409 43.8132 4.2239C44.3243 4.68638 44.3212 4.7238 43.7113 5.37276ZM47.2106 28.4421C42.6572 29.9648 40.3145 32.2513 40.3053 35.1824C40.3042 35.5381 40.0711 35.6878 39.5122 35.6924C38.3072 35.7019 36.5151 36.6311 35.5237 37.7602C34.4724 38.9576 32.8852 42.6204 32.6389 44.4176C32.4319 45.9265 32.8806 47.4581 33.8764 48.6412C34.5584 49.4517 34.5694 49.5196 34.0939 49.9947C33.1065 50.9824 32.4532 52.9544 32.6271 54.4224C32.8458 56.27 34.4266 59.99 35.5237 61.2398C36.5151 62.3688 38.3072 63.2981 39.5122 63.3076C40.0711 63.3122 40.3042 63.4619 40.3053 63.8176C40.3125 66.1156 41.9138 68.1848 44.7278 69.5337C48.6118 71.3948 51.2218 71.4688 53.4358 69.78C54.2692 69.1443 54.3806 69.125 54.736 69.5547C55.3228 70.2638 57.2965 71.0708 58.4612 71.078C60.3033 71.0892 64.7192 69.2692 66.1656 67.9025C67.0143 67.1004 67.9168 65.1526 67.9252 64.1054C67.9304 63.4521 68.0587 63.314 68.6602 63.314C70.6601 63.314 72.7249 61.7449 73.9622 59.2849C75.9327 55.3675 76.1609 52.8151 74.7334 50.6584L73.9671 49.5L74.7334 48.3416C75.8768 46.6137 75.954 44.8199 75.0005 42.1337C73.8128 38.7879 72.7736 37.2948 71.0279 36.4248C70.2125 36.0184 69.1823 35.686 68.7385 35.686C68.0515 35.686 67.9306 35.5683 67.9252 34.8946C67.9168 33.8474 67.0143 31.8996 66.1656 31.0975C64.7192 29.7308 60.3033 27.9108 58.4612 27.922C57.3046 27.9292 55.324 28.7347 54.7461 29.4335C54.4053 29.8453 54.2445 29.805 53.1486 29.0326C51.5539 27.9085 49.4358 27.6978 47.2106 28.4421ZM51.8152 31.8138L52.5347 32.5324L52.6182 39.2175L52.7016 45.9026L48.2291 41.445C43.3182 36.5506 42.8336 35.7871 43.6048 34.1613C44.103 33.1118 45.4165 32.2469 47.8541 31.3634C49.6657 30.7067 50.8402 30.8402 51.8152 31.8138ZM62.0842 32.0806C63.6221 32.8012 64.2731 33.285 64.628 33.9708C65.5262 35.7079 65.1635 36.3031 60.1609 41.2983L55.5565 45.896V39.8268C55.5565 33.1109 55.7243 32.1908 57.1051 31.3326C58.2439 30.625 59.3231 30.787 62.0842 32.0806ZM45.9144 43.4616L50.5179 48.061H44.2452C37.2185 48.061 36.5436 47.9117 35.8276 46.1985C35.4791 45.3639 35.4857 45.0346 35.8777 43.6993C36.5735 41.3296 37.7305 39.3957 38.7179 38.9528C40.4167 38.1904 41.0119 38.5631 45.9144 43.4616ZM69.5325 38.9847C70.3691 39.3341 70.7205 39.785 71.6072 41.6468C72.9592 44.485 73.0338 45.9674 71.8826 47.1191L71.0851 47.9171L64.4 48.0006L57.7149 48.0844L61.8879 43.8697C65.9144 39.8029 67.3746 38.5674 68.1566 38.5651C68.3595 38.5645 68.9788 38.7533 69.5325 38.9847ZM3.22407 41.4856C1.94196 42.2019 0.895551 43.0198 0.562865 43.5652C-0.229998 44.8654 -0.179635 48.1477 0.678557 51.0995L1.34393 53.3889L0.754822 54.682C0.279967 55.7246 0.170031 56.533 0.188162 58.8532C0.207156 61.2997 0.349324 62.1403 1.13643 64.4617C3.71158 72.0562 9.57388 80.3019 16.8343 86.5415C24.1539 92.8324 30.8321 96.2381 39.4109 98.0555C42.7075 98.7539 43.627 98.8253 49.5129 98.8385C54.7072 98.8506 56.4648 98.7511 58.3979 98.3352C65.2326 96.8652 70.26 93.9156 77.0398 87.3983C80.4179 84.1506 80.8231 83.4415 79.8544 82.4725C79.252 81.8704 79.2365 81.8724 75.7292 83.0046C74.0522 83.5459 71.2877 84.2807 69.5863 84.6369C66.2583 85.3337 66.2992 85.2983 66.6724 87.1646C66.8906 88.2556 67.1648 88.2784 70.492 87.4806C71.821 87.162 72.9517 86.9447 73.005 86.9977C73.186 87.179 69.1664 90.3323 66.8917 91.7934C61.9587 94.9623 58.077 95.9094 49.9446 95.9287C43.1953 95.9445 40.2308 95.5215 35.0313 93.8008C29.5546 91.9883 25.2378 89.5489 19.9697 85.2902C9.64266 76.9414 1.78223 63.638 3.21486 56.9333C3.50322 55.5839 3.82037 55.1148 5.8562 53.0272C7.12852 51.7223 8.70619 50.395 9.36236 50.0773C12.1568 48.7247 15.9033 49.8281 17.5474 52.4881C17.8979 53.0557 18.5204 55.2204 19.0134 57.5881C19.4845 59.8504 19.9677 61.7996 20.0877 61.9196C20.2075 62.0393 20.8688 61.9941 21.5575 61.8195C22.997 61.454 22.9743 62.115 21.7532 56.1454C20.9623 52.2795 20.3004 50.8388 18.5199 49.1083C16.7174 47.3565 15.2206 46.7807 12.1721 46.6664C10.7081 46.6114 9.50308 46.5467 9.49445 46.5222C9.48582 46.4981 9.37099 45.4479 9.23918 44.1888C9.02363 42.132 8.90793 41.818 8.09895 41.0951C6.84303 39.973 5.77735 40.0584 3.22407 41.4856ZM6.42228 45.1112C6.49308 46.0212 6.63698 47.025 6.74173 47.3416C6.89167 47.7946 6.59064 48.215 5.32724 49.3161C4.44459 50.0856 3.6382 50.631 3.53517 50.5283C3.43243 50.4252 3.29486 49.1259 3.23011 47.6406L3.11183 44.9402L4.51222 44.2118C5.28235 43.811 5.99837 43.4771 6.10284 43.4699C6.20759 43.4624 6.3512 44.2012 6.42228 45.1112ZM94.3415 51.0368C95.08 51.7016 95.8472 53.9875 95.8472 55.5214V56.5463L93.6413 54.3401L91.4351 52.1341L92.2743 51.1479C93.1595 50.1072 93.3008 50.0995 94.3415 51.0368ZM45.9256 55.5335C42.9553 58.5081 41.0585 60.1894 40.5462 60.3019C38.6505 60.7184 36.9287 58.8805 35.8854 55.3269C35.3346 53.4505 35.6624 52.2798 36.9598 51.4886C37.7699 50.9945 38.4735 50.941 44.1853 50.9401L50.5136 50.939L45.9256 55.5335ZM71.8826 51.8809C73.0338 53.0326 72.9592 54.515 71.6072 57.3532C70.7027 59.2524 70.3783 59.6619 69.4824 60.0363C68.8645 60.2944 68.1134 60.4004 67.6748 60.2916C67.2379 60.1831 64.9998 58.1864 62.3196 55.5142L57.7149 50.9231L64.4 51.0028L71.0851 51.0828L71.8826 51.8809ZM52.6233 61.6367C52.5384 66.2316 52.5056 66.4658 51.8509 67.1617C50.8834 68.1906 49.9129 68.3132 47.9847 67.6495C44.4228 66.4241 42.9179 64.948 43.3562 63.109C43.4768 62.6037 45.211 60.6237 48.0411 57.7602L52.5347 53.2134L52.6233 55.0262C52.6723 56.0231 52.6723 58.998 52.6233 61.6367ZM64.935 63.2034C65.2317 64.7851 64.4233 65.835 62.0813 66.9082C59.2869 68.1891 58.3956 68.35 57.2815 67.7738C55.7384 66.9758 55.5565 66.0744 55.5565 59.2256V53.104L60.1609 57.7017C63.6164 61.1524 64.8078 62.5251 64.935 63.2034ZM91.5304 56.5509L93.6744 58.7093H92.6545C90.9087 58.7093 88.7575 57.9101 87.9632 56.9661L87.2308 56.0956L88.1574 55.2524C88.6671 54.7887 89.152 54.4054 89.2352 54.4008C89.3184 54.3962 90.3513 55.3637 91.5304 56.5509ZM84.3281 59.7048C85.2807 61.2456 85.8753 64.687 85.6341 67.2613L85.4303 69.4361L82.0295 66.0442L78.629 62.6526L79.2518 61.3558C79.7528 60.3129 80.1569 59.9298 81.3138 59.4006C83.2592 58.5107 83.6124 58.5464 84.3281 59.7048ZM22.5325 65.0157C21.1681 65.5055 21.1103 65.6828 21.7756 67.3456C22.2773 68.5995 22.4868 68.6326 24.2483 67.7364L25.0288 67.3396L24.446 65.9803C24.1254 65.2327 23.8391 64.6107 23.8094 64.5986C23.7798 64.5863 23.2054 64.7739 22.5325 65.0157ZM80.2297 68.2732C81.8548 69.8928 83.1844 71.3174 83.1844 71.4389C83.1844 71.5603 81.8655 71.6599 80.2536 71.6599C77.268 71.6599 74.6445 71.1439 73.5575 70.3427C73.0153 69.9432 73.036 69.8868 74.1619 68.708C74.8028 68.0363 75.686 67.0014 76.1243 66.4077C76.5626 65.8143 77.0009 65.3285 77.0982 65.3285C77.1952 65.3285 78.6045 66.6535 80.2297 68.2732ZM93.3768 70.8138C93.9881 71.3508 94.6158 72.325 94.9838 73.3089C95.5983 74.9511 96.299 79.362 95.994 79.6671C95.9019 79.7592 93.6917 77.7041 91.0823 75.0998C85.6919 69.7202 85.7486 70.0347 90.1533 69.9671C92.2423 69.9352 92.4331 69.9852 93.3768 70.8138ZM25.1152 71.1626C24.2492 71.5974 23.9335 71.912 24.0498 72.224C25.0467 74.8944 30.0413 80.3779 33.546 82.6497C37.63 85.2977 41.7869 86.9865 47.0126 88.1215C49.552 88.6732 50.837 88.7601 56.6113 88.7708C60.278 88.7777 63.3312 88.7187 63.3956 88.6395C63.4604 88.5604 63.4595 87.8967 63.3939 87.1649L63.2748 85.8339L58.9119 85.9806C49.3889 86.3004 41.6326 84.3857 35.2209 80.1321C32.0705 78.0422 29.0018 74.9703 27.5309 72.4346C26.9164 71.3755 26.3984 70.5168 26.3797 70.5266C26.361 70.5363 25.792 70.8227 25.1152 71.1626ZM89.009 77.0525C91.5036 79.5436 93.5449 81.6992 93.5449 81.8428C93.5449 82.2371 89.5857 81.8436 87.8622 81.2778C85.8485 80.6171 84.1241 79.1226 83.8812 77.8275C83.6719 76.7126 83.9908 72.5233 84.2849 72.5233C84.3882 72.5233 86.5142 74.5614 89.009 77.0525Z" fill="#26A69A"/>
</svg>
